<svg width="220" height="130" viewBox="0 0 220 130" fill="none" xmlns="http://www.w3.org/2000/svg">
<rect width="220" height="130" fill="white"/>
<path fill-rule="evenodd" clip-rule="evenodd" d="M133.141 32.5868V23.5402C133.141 21.5851 131.556 20 129.601 20H91.3693C89.4142 20 87.8291 21.5851 87.8291 23.5402V32.5868H133.141Z" fill="#F04E98"/>
<path fill-rule="evenodd" clip-rule="evenodd" d="M87.8291 48.5299H133.141V36.7822H87.8291V48.5299Z" fill="#00BFB3"/>
<path fill-rule="evenodd" clip-rule="evenodd" d="M112.609 52.7256V65.3124H129.602C131.557 65.3124 133.142 63.7273 133.142 61.7721V52.7256H112.609Z" fill="#FEC514"/>
<path fill-rule="evenodd" clip-rule="evenodd" d="M108.361 52.7256H87.8291V61.7721C87.8291 63.7273 89.4142 65.3124 91.3693 65.3124H108.361V52.7256Z" fill="#0077CC"/>
<path fill-rule="evenodd" clip-rule="evenodd" d="M124.72 98.8772C128.557 98.8772 131.106 96.6265 131.106 93.2632C131.106 89.3918 128.215 88.6395 125.736 87.9944C123.875 87.5102 122.246 87.0863 122.246 85.449C122.246 84.1087 123.281 83.3501 124.795 83.3501C126.461 83.3501 127.547 84.2858 127.825 85.7778L131.056 85.1961C130.576 82.3386 128.254 80.4166 124.896 80.4166C121.362 80.4166 118.863 82.5914 118.863 85.7272C118.863 89.5943 121.726 90.356 124.198 91.0133C126.074 91.5122 127.724 91.9511 127.724 93.6425C127.724 95.0334 126.588 95.969 124.846 95.969C123.18 95.969 121.715 95.0839 121.413 93.5666L118.181 94.2494C118.711 97.1323 121.463 98.8772 124.72 98.8772ZM51.8902 98.497V95.4371H43.3323V91.1381H49.7949V88.0782H43.3323V83.855H51.8902V80.7951H40V98.497H51.8902ZM57.9468 98.498V80.7961H54.766V98.498H57.9468ZM68.1207 97.3092C67.5401 98.2196 66.1012 98.8518 64.6622 98.8518C62.1883 98.8518 60.4464 97.2839 60.4464 95.0838C60.4464 92.5802 62.3902 91.0882 65.5963 91.0882C66.6313 91.0882 67.6663 91.3158 68.0702 91.5434V90.6583C68.0702 89.3433 67.3129 88.5847 66.0254 88.5847C64.9399 88.5847 64.2583 89.1157 63.9806 89.7732L60.7998 89.5203C61.5067 87.3202 63.4757 86.0558 66.2274 86.0558C69.4335 86.0558 71.2258 87.7754 71.2258 90.8606V98.4977H68.2217V97.3092H68.1207ZM65.5729 96.3739C64.3612 96.3739 63.6544 95.767 63.6544 94.8313C63.6544 93.8957 64.4874 93.2887 65.9516 93.2887C66.8857 93.2887 67.7692 93.5163 68.1226 93.8198V94.6038C68.1226 95.5394 66.9361 96.3739 65.5729 96.3739ZM83.3199 94.8309C83.3199 97.2839 81.3256 98.8771 78.3719 98.8771C75.7717 98.8771 73.8784 97.6632 73.222 95.539L76.1504 94.9827C76.4029 95.9183 77.3369 96.5252 78.4477 96.5252C79.5332 96.5252 80.1643 95.9436 80.1643 95.0585C80.1643 94.0949 79.0836 93.8742 77.8077 93.6137C75.9698 93.2385 73.7269 92.7805 73.7269 89.8997C73.7269 87.5984 75.595 86.0558 78.3467 86.0558C80.8207 86.0558 82.7393 87.295 83.2441 89.141L80.2905 89.7732C80.1391 88.9893 79.3817 88.4582 78.4224 88.4582C77.4379 88.4582 76.8825 88.9893 76.8825 89.6721C76.8825 90.6506 77.9734 90.875 79.2571 91.1389C81.0916 91.5161 83.3199 91.9743 83.3199 94.8309ZM90.6148 98.7511C91.5236 98.7511 92.2557 98.5994 92.6849 98.4223L92.3567 95.8935C92.079 96.0199 91.7256 96.1211 91.2459 96.1211C90.0594 96.1211 89.4536 95.6153 89.4536 93.9969V89.1415H92.5586V86.4356H89.4536V82.617L86.2727 83.2493V86.4356H84.2027V89.1415H86.2727V94.5026C86.2727 97.689 88.0904 98.7511 90.6148 98.7511ZM97.5829 80.7961V83.856H94.4021V80.7961H97.5829ZM97.5829 98.4979V86.4353H94.4021V98.4979H97.5829ZM111.441 94.9827C110.708 97.4862 108.714 98.8771 106.013 98.8771C102.277 98.8771 99.7776 96.2218 99.7776 92.4538C99.7776 88.5088 102.479 86.0558 105.836 86.0558C108.941 86.0558 110.91 87.5225 111.592 90.279L108.512 90.7089C108.159 89.5456 107.25 88.8628 105.912 88.8628C104.019 88.8628 102.958 90.3549 102.958 92.4791C102.958 94.578 104.019 96.0953 105.912 96.0953C107.25 96.0953 108.108 95.362 108.462 94.224L111.441 94.9827ZM140.749 98.4223C140.32 98.5994 139.588 98.7511 138.679 98.7511C136.155 98.7511 134.337 97.689 134.337 94.5026V89.1415H132.267V86.4356H134.337V83.2493L137.518 82.617V86.4356H140.623V89.1415H137.518V93.9969C137.518 95.6153 138.124 96.1211 139.31 96.1211C139.79 96.1211 140.143 96.0199 140.421 95.8935L140.749 98.4223ZM146.279 98.8518C147.718 98.8518 149.157 98.2196 149.738 97.3092H149.839V98.4977H152.843V90.8606C152.843 87.7754 151.05 86.0558 147.844 86.0558C145.093 86.0558 143.124 87.3202 142.417 89.5203L145.598 89.7732C145.875 89.1157 146.557 88.5847 147.642 88.5847C148.93 88.5847 149.687 89.3433 149.687 90.6583V91.5434C149.283 91.3158 148.248 91.0882 147.213 91.0882C144.007 91.0882 142.063 92.5802 142.063 95.0838C142.063 97.2839 143.805 98.8518 146.279 98.8518ZM145.27 94.8313C145.27 95.767 145.977 96.3739 147.189 96.3739C148.552 96.3739 149.739 95.5394 149.739 94.6038V93.8198C149.385 93.5163 148.502 93.2887 147.568 93.2887C146.103 93.2887 145.27 93.8957 145.27 94.8313ZM161.072 98.8771C163.774 98.8771 165.768 97.4862 166.5 94.9827L163.521 94.224C163.168 95.362 162.309 96.0953 160.971 96.0953C159.078 96.0953 158.018 94.578 158.018 92.4791C158.018 90.3549 159.078 88.8628 160.971 88.8628C162.309 88.8628 163.218 89.5456 163.572 90.7089L166.651 90.279C165.97 87.5225 164.001 86.0558 160.896 86.0558C157.538 86.0558 154.837 88.5088 154.837 92.4538C154.837 96.2218 157.336 98.8771 161.072 98.8771ZM171.676 92.8587V98.498H168.495V80.7961H171.676V91.4678L175.942 86.4354H179.704L174.857 91.8724L180.133 98.498H176.068L171.676 92.8587Z" fill="#343741"/>
</svg>
